<mxfile host="app.diagrams.net" modified="2021-04-05T06:32:28.581Z" agent="5.0 (Macintosh; Intel Mac OS X 11_2_3) AppleWebKit/537.36 (KHTML, like Gecko) Chrome/89.0.4389.90 Safari/537.36" etag="GyBASJ93kBCrR4Y5Xchq" version="14.5.3" type="github">
  <diagram id="C5RBs43oDa-KdzZeNtuy" name="Page-1">
    <mxGraphModel dx="1983" dy="1099" grid="1" gridSize="10" guides="1" tooltips="1" connect="1" arrows="1" fold="1" page="1" pageScale="1" pageWidth="827" pageHeight="1169" math="0" shadow="0">
      <root>
        <mxCell id="WIyWlLk6GJQsqaUBKTNV-0" />
        <mxCell id="WIyWlLk6GJQsqaUBKTNV-1" parent="WIyWlLk6GJQsqaUBKTNV-0" />
        <mxCell id="WIyWlLk6GJQsqaUBKTNV-2" value="" style="rounded=0;html=1;jettySize=auto;orthogonalLoop=1;fontSize=11;endArrow=block;endFill=0;endSize=8;strokeWidth=1;shadow=0;labelBackgroundColor=none;edgeStyle=orthogonalEdgeStyle;entryX=0.5;entryY=0;entryDx=0;entryDy=0;" parent="WIyWlLk6GJQsqaUBKTNV-1" source="WIyWlLk6GJQsqaUBKTNV-3" target="4Q5z590cYtlkrLiECwAs-5" edge="1">
          <mxGeometry relative="1" as="geometry">
            <mxPoint x="465" y="100" as="targetPoint" />
          </mxGeometry>
        </mxCell>
        <mxCell id="WIyWlLk6GJQsqaUBKTNV-3" value="Start" style="rounded=1;whiteSpace=wrap;html=1;fontSize=12;glass=0;strokeWidth=1;shadow=0;" parent="WIyWlLk6GJQsqaUBKTNV-1" vertex="1">
          <mxGeometry x="410" y="10" width="100" height="40" as="geometry" />
        </mxCell>
        <mxCell id="WIyWlLk6GJQsqaUBKTNV-4" value="Yes" style="rounded=0;html=1;jettySize=auto;orthogonalLoop=1;fontSize=11;endArrow=block;endFill=0;endSize=8;strokeWidth=1;shadow=0;labelBackgroundColor=none;edgeStyle=orthogonalEdgeStyle;" parent="WIyWlLk6GJQsqaUBKTNV-1" source="WIyWlLk6GJQsqaUBKTNV-6" target="WIyWlLk6GJQsqaUBKTNV-10" edge="1">
          <mxGeometry y="20" relative="1" as="geometry">
            <mxPoint as="offset" />
          </mxGeometry>
        </mxCell>
        <mxCell id="WIyWlLk6GJQsqaUBKTNV-5" value="No" style="edgeStyle=orthogonalEdgeStyle;rounded=0;html=1;jettySize=auto;orthogonalLoop=1;fontSize=11;endArrow=block;endFill=0;endSize=8;strokeWidth=1;shadow=0;labelBackgroundColor=none;entryX=0.5;entryY=0;entryDx=0;entryDy=0;" parent="WIyWlLk6GJQsqaUBKTNV-1" source="WIyWlLk6GJQsqaUBKTNV-6" target="4Q5z590cYtlkrLiECwAs-29" edge="1">
          <mxGeometry y="10" relative="1" as="geometry">
            <mxPoint as="offset" />
            <mxPoint x="675" y="310" as="targetPoint" />
          </mxGeometry>
        </mxCell>
        <mxCell id="WIyWlLk6GJQsqaUBKTNV-6" value="Player decides to&lt;br&gt;play" style="rhombus;whiteSpace=wrap;html=1;shadow=0;fontFamily=Helvetica;fontSize=12;align=center;strokeWidth=1;spacing=6;spacingTop=-4;" parent="WIyWlLk6GJQsqaUBKTNV-1" vertex="1">
          <mxGeometry x="397.5" y="183" width="125" height="120" as="geometry" />
        </mxCell>
        <mxCell id="WIyWlLk6GJQsqaUBKTNV-9" value="" style="edgeStyle=orthogonalEdgeStyle;rounded=0;html=1;jettySize=auto;orthogonalLoop=1;fontSize=11;endArrow=block;endFill=0;endSize=8;strokeWidth=1;shadow=0;labelBackgroundColor=none;" parent="WIyWlLk6GJQsqaUBKTNV-1" source="WIyWlLk6GJQsqaUBKTNV-10" target="4Q5z590cYtlkrLiECwAs-25" edge="1">
          <mxGeometry y="10" relative="1" as="geometry">
            <mxPoint as="offset" />
            <mxPoint x="415" y="440" as="targetPoint" />
          </mxGeometry>
        </mxCell>
        <mxCell id="4Q5z590cYtlkrLiECwAs-34" style="edgeStyle=orthogonalEdgeStyle;rounded=0;orthogonalLoop=1;jettySize=auto;html=1;entryX=0.5;entryY=0;entryDx=0;entryDy=0;" edge="1" parent="WIyWlLk6GJQsqaUBKTNV-1" source="WIyWlLk6GJQsqaUBKTNV-10" target="4Q5z590cYtlkrLiECwAs-32">
          <mxGeometry relative="1" as="geometry" />
        </mxCell>
        <mxCell id="WIyWlLk6GJQsqaUBKTNV-10" value="&amp;nbsp;Matching color&lt;br&gt;Number, &lt;br&gt;Action card&amp;nbsp;" style="rhombus;whiteSpace=wrap;html=1;shadow=0;fontFamily=Helvetica;fontSize=12;align=center;strokeWidth=1;spacing=6;spacingTop=-4;" parent="WIyWlLk6GJQsqaUBKTNV-1" vertex="1">
          <mxGeometry x="215" y="313" width="170" height="110" as="geometry" />
        </mxCell>
        <mxCell id="4Q5z590cYtlkrLiECwAs-13" style="edgeStyle=orthogonalEdgeStyle;rounded=0;orthogonalLoop=1;jettySize=auto;html=1;entryX=0.5;entryY=0.024;entryDx=0;entryDy=0;entryPerimeter=0;exitX=0.5;exitY=1;exitDx=0;exitDy=0;" edge="1" parent="WIyWlLk6GJQsqaUBKTNV-1" source="4Q5z590cYtlkrLiECwAs-5" target="WIyWlLk6GJQsqaUBKTNV-6">
          <mxGeometry relative="1" as="geometry">
            <mxPoint x="460" y="103" as="sourcePoint" />
          </mxGeometry>
        </mxCell>
        <mxCell id="4Q5z590cYtlkrLiECwAs-5" value="" style="rounded=0;whiteSpace=wrap;html=1;" vertex="1" parent="WIyWlLk6GJQsqaUBKTNV-1">
          <mxGeometry x="385" y="90" width="150" height="60" as="geometry" />
        </mxCell>
        <mxCell id="4Q5z590cYtlkrLiECwAs-8" value="Process hand" style="text;html=1;strokeColor=none;fillColor=none;align=center;verticalAlign=middle;whiteSpace=wrap;rounded=0;" vertex="1" parent="WIyWlLk6GJQsqaUBKTNV-1">
          <mxGeometry x="405" y="110" width="105" height="20" as="geometry" />
        </mxCell>
        <mxCell id="4Q5z590cYtlkrLiECwAs-19" style="edgeStyle=orthogonalEdgeStyle;rounded=0;orthogonalLoop=1;jettySize=auto;html=1;entryX=0.579;entryY=0.039;entryDx=0;entryDy=0;entryPerimeter=0;" edge="1" parent="WIyWlLk6GJQsqaUBKTNV-1" source="4Q5z590cYtlkrLiECwAs-18" target="WIyWlLk6GJQsqaUBKTNV-10">
          <mxGeometry relative="1" as="geometry" />
        </mxCell>
        <mxCell id="4Q5z590cYtlkrLiECwAs-22" style="edgeStyle=orthogonalEdgeStyle;rounded=0;orthogonalLoop=1;jettySize=auto;html=1;entryX=0.5;entryY=0;entryDx=0;entryDy=0;" edge="1" parent="WIyWlLk6GJQsqaUBKTNV-1" source="4Q5z590cYtlkrLiECwAs-18" target="4Q5z590cYtlkrLiECwAs-21">
          <mxGeometry relative="1" as="geometry" />
        </mxCell>
        <mxCell id="4Q5z590cYtlkrLiECwAs-18" value="Player&amp;nbsp;decides&lt;br&gt;to play card" style="rhombus;whiteSpace=wrap;html=1;shadow=0;fontFamily=Helvetica;fontSize=12;align=center;strokeWidth=1;spacing=6;spacingTop=-4;" vertex="1" parent="WIyWlLk6GJQsqaUBKTNV-1">
          <mxGeometry x="575" y="373.46" width="145" height="120" as="geometry" />
        </mxCell>
        <mxCell id="4Q5z590cYtlkrLiECwAs-20" value="Yes" style="text;html=1;align=center;verticalAlign=middle;resizable=0;points=[];autosize=1;" vertex="1" parent="WIyWlLk6GJQsqaUBKTNV-1">
          <mxGeometry x="479" y="373.46" width="40" height="20" as="geometry" />
        </mxCell>
        <mxCell id="4Q5z590cYtlkrLiECwAs-21" value="End turn" style="rounded=1;whiteSpace=wrap;html=1;fontSize=12;glass=0;strokeWidth=1;shadow=0;" vertex="1" parent="WIyWlLk6GJQsqaUBKTNV-1">
          <mxGeometry x="597.5" y="550" width="100" height="40" as="geometry" />
        </mxCell>
        <mxCell id="4Q5z590cYtlkrLiECwAs-66" style="edgeStyle=orthogonalEdgeStyle;rounded=0;orthogonalLoop=1;jettySize=auto;html=1;entryX=0.5;entryY=0;entryDx=0;entryDy=0;" edge="1" parent="WIyWlLk6GJQsqaUBKTNV-1" source="4Q5z590cYtlkrLiECwAs-25" target="4Q5z590cYtlkrLiECwAs-78">
          <mxGeometry relative="1" as="geometry">
            <Array as="points">
              <mxPoint x="80" y="410" />
            </Array>
          </mxGeometry>
        </mxCell>
        <mxCell id="4Q5z590cYtlkrLiECwAs-25" value="Color or&lt;br&gt;Number&lt;br&gt;Played" style="shape=parallelogram;perimeter=parallelogramPerimeter;whiteSpace=wrap;html=1;fixedSize=1;rounded=1;shadow=0;strokeWidth=1;glass=0;" vertex="1" parent="WIyWlLk6GJQsqaUBKTNV-1">
          <mxGeometry x="20" y="334.5" width="120" height="67" as="geometry" />
        </mxCell>
        <mxCell id="4Q5z590cYtlkrLiECwAs-26" value="End turn" style="rounded=1;whiteSpace=wrap;html=1;fontSize=12;glass=0;strokeWidth=1;shadow=0;" vertex="1" parent="WIyWlLk6GJQsqaUBKTNV-1">
          <mxGeometry x="178" y="544" width="100" height="40" as="geometry" />
        </mxCell>
        <mxCell id="4Q5z590cYtlkrLiECwAs-30" style="edgeStyle=orthogonalEdgeStyle;rounded=0;orthogonalLoop=1;jettySize=auto;html=1;entryX=0.5;entryY=0;entryDx=0;entryDy=0;" edge="1" parent="WIyWlLk6GJQsqaUBKTNV-1" source="4Q5z590cYtlkrLiECwAs-29" target="4Q5z590cYtlkrLiECwAs-18">
          <mxGeometry relative="1" as="geometry" />
        </mxCell>
        <mxCell id="4Q5z590cYtlkrLiECwAs-29" value="Player draws &lt;br&gt;a card" style="shape=parallelogram;perimeter=parallelogramPerimeter;whiteSpace=wrap;html=1;fixedSize=1;rounded=1;shadow=0;strokeWidth=1;glass=0;" vertex="1" parent="WIyWlLk6GJQsqaUBKTNV-1">
          <mxGeometry x="587.5" y="276.73" width="120" height="60" as="geometry" />
        </mxCell>
        <mxCell id="4Q5z590cYtlkrLiECwAs-31" value="No" style="text;html=1;align=center;verticalAlign=middle;resizable=0;points=[];autosize=1;" vertex="1" parent="WIyWlLk6GJQsqaUBKTNV-1">
          <mxGeometry x="650" y="510" width="30" height="20" as="geometry" />
        </mxCell>
        <mxCell id="4Q5z590cYtlkrLiECwAs-46" style="edgeStyle=orthogonalEdgeStyle;rounded=0;orthogonalLoop=1;jettySize=auto;html=1;" edge="1" parent="WIyWlLk6GJQsqaUBKTNV-1" source="4Q5z590cYtlkrLiECwAs-32" target="4Q5z590cYtlkrLiECwAs-38">
          <mxGeometry relative="1" as="geometry">
            <Array as="points">
              <mxPoint x="425" y="620" />
              <mxPoint x="575" y="620" />
            </Array>
          </mxGeometry>
        </mxCell>
        <mxCell id="4Q5z590cYtlkrLiECwAs-47" style="edgeStyle=orthogonalEdgeStyle;rounded=0;orthogonalLoop=1;jettySize=auto;html=1;" edge="1" parent="WIyWlLk6GJQsqaUBKTNV-1" source="4Q5z590cYtlkrLiECwAs-32" target="4Q5z590cYtlkrLiECwAs-39">
          <mxGeometry relative="1" as="geometry">
            <Array as="points">
              <mxPoint x="425" y="620" />
              <mxPoint x="729" y="620" />
            </Array>
          </mxGeometry>
        </mxCell>
        <mxCell id="4Q5z590cYtlkrLiECwAs-48" style="edgeStyle=orthogonalEdgeStyle;rounded=0;orthogonalLoop=1;jettySize=auto;html=1;" edge="1" parent="WIyWlLk6GJQsqaUBKTNV-1" source="4Q5z590cYtlkrLiECwAs-32" target="4Q5z590cYtlkrLiECwAs-35">
          <mxGeometry relative="1" as="geometry">
            <Array as="points">
              <mxPoint x="425" y="620" />
              <mxPoint x="108" y="620" />
            </Array>
          </mxGeometry>
        </mxCell>
        <mxCell id="4Q5z590cYtlkrLiECwAs-49" style="edgeStyle=orthogonalEdgeStyle;rounded=0;orthogonalLoop=1;jettySize=auto;html=1;entryX=0.582;entryY=-0.048;entryDx=0;entryDy=0;entryPerimeter=0;" edge="1" parent="WIyWlLk6GJQsqaUBKTNV-1" source="4Q5z590cYtlkrLiECwAs-32" target="4Q5z590cYtlkrLiECwAs-36">
          <mxGeometry relative="1" as="geometry">
            <Array as="points">
              <mxPoint x="425" y="620" />
              <mxPoint x="285" y="620" />
            </Array>
          </mxGeometry>
        </mxCell>
        <mxCell id="4Q5z590cYtlkrLiECwAs-50" style="edgeStyle=orthogonalEdgeStyle;rounded=0;orthogonalLoop=1;jettySize=auto;html=1;entryX=0.5;entryY=0;entryDx=0;entryDy=0;" edge="1" parent="WIyWlLk6GJQsqaUBKTNV-1" source="4Q5z590cYtlkrLiECwAs-32" target="4Q5z590cYtlkrLiECwAs-37">
          <mxGeometry relative="1" as="geometry">
            <Array as="points">
              <mxPoint x="425" y="710" />
            </Array>
          </mxGeometry>
        </mxCell>
        <mxCell id="4Q5z590cYtlkrLiECwAs-32" value="Action Card" style="shape=parallelogram;perimeter=parallelogramPerimeter;whiteSpace=wrap;html=1;fixedSize=1;rounded=1;shadow=0;strokeWidth=1;glass=0;" vertex="1" parent="WIyWlLk6GJQsqaUBKTNV-1">
          <mxGeometry x="378.5" y="484" width="120" height="60" as="geometry" />
        </mxCell>
        <mxCell id="4Q5z590cYtlkrLiECwAs-33" value="End turn" style="rounded=1;whiteSpace=wrap;html=1;fontSize=12;glass=0;strokeWidth=1;shadow=0;" vertex="1" parent="WIyWlLk6GJQsqaUBKTNV-1">
          <mxGeometry x="369" y="980" width="100" height="40" as="geometry" />
        </mxCell>
        <mxCell id="4Q5z590cYtlkrLiECwAs-61" style="edgeStyle=orthogonalEdgeStyle;rounded=0;orthogonalLoop=1;jettySize=auto;html=1;entryX=0.5;entryY=0;entryDx=0;entryDy=0;" edge="1" parent="WIyWlLk6GJQsqaUBKTNV-1" source="4Q5z590cYtlkrLiECwAs-35" target="4Q5z590cYtlkrLiECwAs-51">
          <mxGeometry relative="1" as="geometry" />
        </mxCell>
        <mxCell id="4Q5z590cYtlkrLiECwAs-80" style="edgeStyle=orthogonalEdgeStyle;rounded=0;orthogonalLoop=1;jettySize=auto;html=1;entryX=1;entryY=0.5;entryDx=0;entryDy=0;" edge="1" parent="WIyWlLk6GJQsqaUBKTNV-1" source="4Q5z590cYtlkrLiECwAs-35" target="4Q5z590cYtlkrLiECwAs-79">
          <mxGeometry relative="1" as="geometry" />
        </mxCell>
        <mxCell id="4Q5z590cYtlkrLiECwAs-35" value="Wild Draw 4" style="shape=parallelogram;perimeter=parallelogramPerimeter;whiteSpace=wrap;html=1;fixedSize=1;rounded=1;shadow=0;strokeWidth=1;glass=0;" vertex="1" parent="WIyWlLk6GJQsqaUBKTNV-1">
          <mxGeometry x="47.5" y="710" width="120" height="60" as="geometry" />
        </mxCell>
        <mxCell id="4Q5z590cYtlkrLiECwAs-62" style="edgeStyle=orthogonalEdgeStyle;rounded=0;orthogonalLoop=1;jettySize=auto;html=1;entryX=0.5;entryY=0;entryDx=0;entryDy=0;" edge="1" parent="WIyWlLk6GJQsqaUBKTNV-1" source="4Q5z590cYtlkrLiECwAs-36" target="4Q5z590cYtlkrLiECwAs-52">
          <mxGeometry relative="1" as="geometry" />
        </mxCell>
        <mxCell id="4Q5z590cYtlkrLiECwAs-36" value="Wild" style="shape=parallelogram;perimeter=parallelogramPerimeter;whiteSpace=wrap;html=1;fixedSize=1;rounded=1;shadow=0;strokeWidth=1;glass=0;" vertex="1" parent="WIyWlLk6GJQsqaUBKTNV-1">
          <mxGeometry x="215" y="710" width="120" height="60" as="geometry" />
        </mxCell>
        <mxCell id="4Q5z590cYtlkrLiECwAs-58" style="edgeStyle=orthogonalEdgeStyle;rounded=0;orthogonalLoop=1;jettySize=auto;html=1;" edge="1" parent="WIyWlLk6GJQsqaUBKTNV-1" source="4Q5z590cYtlkrLiECwAs-37" target="4Q5z590cYtlkrLiECwAs-33">
          <mxGeometry relative="1" as="geometry" />
        </mxCell>
        <mxCell id="4Q5z590cYtlkrLiECwAs-37" value="Draw Two" style="shape=parallelogram;perimeter=parallelogramPerimeter;whiteSpace=wrap;html=1;fixedSize=1;rounded=1;shadow=0;strokeWidth=1;glass=0;" vertex="1" parent="WIyWlLk6GJQsqaUBKTNV-1">
          <mxGeometry x="359" y="710" width="120" height="60" as="geometry" />
        </mxCell>
        <mxCell id="4Q5z590cYtlkrLiECwAs-63" style="edgeStyle=orthogonalEdgeStyle;rounded=0;orthogonalLoop=1;jettySize=auto;html=1;entryX=1;entryY=0.5;entryDx=0;entryDy=0;" edge="1" parent="WIyWlLk6GJQsqaUBKTNV-1" source="4Q5z590cYtlkrLiECwAs-38" target="4Q5z590cYtlkrLiECwAs-33">
          <mxGeometry relative="1" as="geometry">
            <Array as="points">
              <mxPoint x="575" y="1000" />
            </Array>
          </mxGeometry>
        </mxCell>
        <mxCell id="4Q5z590cYtlkrLiECwAs-38" value="Reverse" style="shape=parallelogram;perimeter=parallelogramPerimeter;whiteSpace=wrap;html=1;fixedSize=1;rounded=1;shadow=0;strokeWidth=1;glass=0;" vertex="1" parent="WIyWlLk6GJQsqaUBKTNV-1">
          <mxGeometry x="515" y="710" width="120" height="60" as="geometry" />
        </mxCell>
        <mxCell id="4Q5z590cYtlkrLiECwAs-39" value="Skip" style="shape=parallelogram;perimeter=parallelogramPerimeter;whiteSpace=wrap;html=1;fixedSize=1;rounded=1;shadow=0;strokeWidth=1;glass=0;" vertex="1" parent="WIyWlLk6GJQsqaUBKTNV-1">
          <mxGeometry x="669.5" y="710" width="120" height="60" as="geometry" />
        </mxCell>
        <mxCell id="4Q5z590cYtlkrLiECwAs-54" style="edgeStyle=orthogonalEdgeStyle;rounded=0;orthogonalLoop=1;jettySize=auto;html=1;entryX=0;entryY=0.75;entryDx=0;entryDy=0;" edge="1" parent="WIyWlLk6GJQsqaUBKTNV-1" source="4Q5z590cYtlkrLiECwAs-51" target="4Q5z590cYtlkrLiECwAs-53">
          <mxGeometry relative="1" as="geometry">
            <Array as="points">
              <mxPoint x="108" y="1014" />
            </Array>
          </mxGeometry>
        </mxCell>
        <mxCell id="4Q5z590cYtlkrLiECwAs-51" value="Choose a new color" style="rhombus;whiteSpace=wrap;html=1;shadow=0;fontFamily=Helvetica;fontSize=12;align=center;strokeWidth=1;spacing=6;spacingTop=-4;" vertex="1" parent="WIyWlLk6GJQsqaUBKTNV-1">
          <mxGeometry x="40" y="820" width="135" height="110" as="geometry" />
        </mxCell>
        <mxCell id="4Q5z590cYtlkrLiECwAs-56" style="edgeStyle=orthogonalEdgeStyle;rounded=0;orthogonalLoop=1;jettySize=auto;html=1;entryX=0.5;entryY=0;entryDx=0;entryDy=0;" edge="1" parent="WIyWlLk6GJQsqaUBKTNV-1" source="4Q5z590cYtlkrLiECwAs-52" target="4Q5z590cYtlkrLiECwAs-53">
          <mxGeometry relative="1" as="geometry" />
        </mxCell>
        <mxCell id="4Q5z590cYtlkrLiECwAs-52" value="Choose a new color" style="rhombus;whiteSpace=wrap;html=1;shadow=0;fontFamily=Helvetica;fontSize=12;align=center;strokeWidth=1;spacing=6;spacingTop=-4;" vertex="1" parent="WIyWlLk6GJQsqaUBKTNV-1">
          <mxGeometry x="207.5" y="820" width="135" height="110" as="geometry" />
        </mxCell>
        <mxCell id="4Q5z590cYtlkrLiECwAs-57" style="edgeStyle=orthogonalEdgeStyle;rounded=0;orthogonalLoop=1;jettySize=auto;html=1;" edge="1" parent="WIyWlLk6GJQsqaUBKTNV-1" source="4Q5z590cYtlkrLiECwAs-53" target="4Q5z590cYtlkrLiECwAs-33">
          <mxGeometry relative="1" as="geometry" />
        </mxCell>
        <mxCell id="4Q5z590cYtlkrLiECwAs-53" value="Color" style="shape=parallelogram;perimeter=parallelogramPerimeter;whiteSpace=wrap;html=1;fixedSize=1;rounded=1;shadow=0;strokeWidth=1;glass=0;" vertex="1" parent="WIyWlLk6GJQsqaUBKTNV-1">
          <mxGeometry x="135" y="970" width="120" height="60" as="geometry" />
        </mxCell>
        <mxCell id="4Q5z590cYtlkrLiECwAs-87" style="edgeStyle=orthogonalEdgeStyle;rounded=0;orthogonalLoop=1;jettySize=auto;html=1;entryX=0.5;entryY=0;entryDx=0;entryDy=0;" edge="1" parent="WIyWlLk6GJQsqaUBKTNV-1" source="4Q5z590cYtlkrLiECwAs-65" target="4Q5z590cYtlkrLiECwAs-26">
          <mxGeometry relative="1" as="geometry" />
        </mxCell>
        <mxCell id="4Q5z590cYtlkrLiECwAs-65" value="UNO" style="shape=parallelogram;perimeter=parallelogramPerimeter;whiteSpace=wrap;html=1;fixedSize=1;rounded=1;shadow=0;strokeWidth=1;glass=0;" vertex="1" parent="WIyWlLk6GJQsqaUBKTNV-1">
          <mxGeometry x="167.5" y="424" width="120" height="60" as="geometry" />
        </mxCell>
        <mxCell id="4Q5z590cYtlkrLiECwAs-82" style="edgeStyle=orthogonalEdgeStyle;rounded=0;orthogonalLoop=1;jettySize=auto;html=1;entryX=0.5;entryY=1;entryDx=0;entryDy=0;" edge="1" parent="WIyWlLk6GJQsqaUBKTNV-1" source="4Q5z590cYtlkrLiECwAs-69" target="4Q5z590cYtlkrLiECwAs-33">
          <mxGeometry relative="1" as="geometry">
            <Array as="points">
              <mxPoint x="290" y="1050" />
              <mxPoint x="419" y="1050" />
            </Array>
          </mxGeometry>
        </mxCell>
        <mxCell id="4Q5z590cYtlkrLiECwAs-69" value="UNO" style="shape=parallelogram;perimeter=parallelogramPerimeter;whiteSpace=wrap;html=1;fixedSize=1;rounded=1;shadow=0;strokeWidth=1;glass=0;" vertex="1" parent="WIyWlLk6GJQsqaUBKTNV-1">
          <mxGeometry x="230" y="1070" width="120" height="60" as="geometry" />
        </mxCell>
        <mxCell id="4Q5z590cYtlkrLiECwAs-70" style="edgeStyle=orthogonalEdgeStyle;rounded=0;orthogonalLoop=1;jettySize=auto;html=1;" edge="1" parent="WIyWlLk6GJQsqaUBKTNV-1" source="4Q5z590cYtlkrLiECwAs-39">
          <mxGeometry relative="1" as="geometry">
            <mxPoint x="725" y="770" as="sourcePoint" />
            <mxPoint x="475" y="1010" as="targetPoint" />
            <Array as="points">
              <mxPoint x="729" y="1000" />
              <mxPoint x="475" y="1000" />
            </Array>
          </mxGeometry>
        </mxCell>
        <mxCell id="4Q5z590cYtlkrLiECwAs-86" style="edgeStyle=orthogonalEdgeStyle;rounded=0;orthogonalLoop=1;jettySize=auto;html=1;entryX=0;entryY=0.5;entryDx=0;entryDy=0;" edge="1" parent="WIyWlLk6GJQsqaUBKTNV-1" source="4Q5z590cYtlkrLiECwAs-78" target="4Q5z590cYtlkrLiECwAs-65">
          <mxGeometry relative="1" as="geometry">
            <Array as="points">
              <mxPoint x="150" y="454" />
              <mxPoint x="150" y="454" />
            </Array>
          </mxGeometry>
        </mxCell>
        <mxCell id="4Q5z590cYtlkrLiECwAs-89" value="Yes" style="edgeLabel;html=1;align=center;verticalAlign=middle;resizable=0;points=[];" vertex="1" connectable="0" parent="4Q5z590cYtlkrLiECwAs-86">
          <mxGeometry x="-0.1152" relative="1" as="geometry">
            <mxPoint as="offset" />
          </mxGeometry>
        </mxCell>
        <mxCell id="4Q5z590cYtlkrLiECwAs-88" style="edgeStyle=orthogonalEdgeStyle;rounded=0;orthogonalLoop=1;jettySize=auto;html=1;entryX=0;entryY=0.5;entryDx=0;entryDy=0;" edge="1" parent="WIyWlLk6GJQsqaUBKTNV-1" source="4Q5z590cYtlkrLiECwAs-78" target="4Q5z590cYtlkrLiECwAs-26">
          <mxGeometry relative="1" as="geometry">
            <Array as="points">
              <mxPoint x="80" y="564" />
            </Array>
          </mxGeometry>
        </mxCell>
        <mxCell id="4Q5z590cYtlkrLiECwAs-90" value="No" style="edgeLabel;html=1;align=center;verticalAlign=middle;resizable=0;points=[];" vertex="1" connectable="0" parent="4Q5z590cYtlkrLiECwAs-88">
          <mxGeometry x="0.0128" y="-1" relative="1" as="geometry">
            <mxPoint as="offset" />
          </mxGeometry>
        </mxCell>
        <mxCell id="4Q5z590cYtlkrLiECwAs-78" value="If 1 Card Remaining" style="rhombus;whiteSpace=wrap;html=1;shadow=0;fontFamily=Helvetica;fontSize=12;align=center;strokeWidth=1;spacing=6;spacingTop=-4;" vertex="1" parent="WIyWlLk6GJQsqaUBKTNV-1">
          <mxGeometry x="12.5" y="440.00000000000006" width="135" height="110" as="geometry" />
        </mxCell>
        <mxCell id="4Q5z590cYtlkrLiECwAs-81" style="edgeStyle=orthogonalEdgeStyle;rounded=0;orthogonalLoop=1;jettySize=auto;html=1;" edge="1" parent="WIyWlLk6GJQsqaUBKTNV-1" source="4Q5z590cYtlkrLiECwAs-79">
          <mxGeometry relative="1" as="geometry">
            <mxPoint x="340" y="1100" as="targetPoint" />
          </mxGeometry>
        </mxCell>
        <mxCell id="4Q5z590cYtlkrLiECwAs-83" value="Yes" style="edgeLabel;html=1;align=center;verticalAlign=middle;resizable=0;points=[];" vertex="1" connectable="0" parent="4Q5z590cYtlkrLiECwAs-81">
          <mxGeometry x="-0.0983" y="2" relative="1" as="geometry">
            <mxPoint y="6" as="offset" />
          </mxGeometry>
        </mxCell>
        <mxCell id="4Q5z590cYtlkrLiECwAs-84" value="No" style="edgeStyle=orthogonalEdgeStyle;rounded=0;orthogonalLoop=1;jettySize=auto;html=1;entryX=0.75;entryY=1;entryDx=0;entryDy=0;exitX=0.5;exitY=0;exitDx=0;exitDy=0;" edge="1" parent="WIyWlLk6GJQsqaUBKTNV-1" source="4Q5z590cYtlkrLiECwAs-79">
          <mxGeometry x="-0.0336" y="-11" relative="1" as="geometry">
            <mxPoint x="715.8636363636365" y="1051" as="sourcePoint" />
            <mxPoint x="444" y="1021" as="targetPoint" />
            <Array as="points">
              <mxPoint x="722" y="1051" />
              <mxPoint x="444" y="1051" />
            </Array>
            <mxPoint as="offset" />
          </mxGeometry>
        </mxCell>
        <mxCell id="4Q5z590cYtlkrLiECwAs-79" value="If 1 Card Remaining" style="rhombus;whiteSpace=wrap;html=1;shadow=0;fontFamily=Helvetica;fontSize=12;align=center;strokeWidth=1;spacing=6;spacingTop=-4;" vertex="1" parent="WIyWlLk6GJQsqaUBKTNV-1">
          <mxGeometry x="654.5" y="1045" width="135" height="110" as="geometry" />
        </mxCell>
      </root>
    </mxGraphModel>
  </diagram>
</mxfile>
